<mxfile host="app.diagrams.net" agent="Mozilla/5.0 (Windows NT 10.0; Win64; x64) AppleWebKit/537.36 (KHTML, like Gecko) Chrome/122.0.0.0 Safari/537.36" version="26.2.9">
  <diagram name="第 1 页" id="EFpU_bU7Tqgf_MAF6DgK">
    <mxGraphModel dx="971" dy="586" grid="1" gridSize="10" guides="1" tooltips="1" connect="1" arrows="1" fold="1" page="1" pageScale="1" pageWidth="827" pageHeight="1169" background="none" math="0" shadow="0">
      <root>
        <mxCell id="0" />
        <mxCell id="1" parent="0" />
        <mxCell id="j8Kz5dMzcf1XI_dZR99u-1" value="Student" style="shape=umlActor;verticalLabelPosition=bottom;verticalAlign=top;html=1;outlineConnect=0;" vertex="1" parent="1">
          <mxGeometry x="100" y="200" width="30" height="60" as="geometry" />
        </mxCell>
        <mxCell id="j8Kz5dMzcf1XI_dZR99u-2" value="Admin" style="shape=umlActor;verticalLabelPosition=bottom;verticalAlign=top;html=1;outlineConnect=0;" vertex="1" parent="1">
          <mxGeometry x="129" y="510" width="30" height="60" as="geometry" />
        </mxCell>
        <mxCell id="j8Kz5dMzcf1XI_dZR99u-4" value="Teacher" style="shape=umlActor;verticalLabelPosition=bottom;verticalAlign=top;html=1;outlineConnect=0;" vertex="1" parent="1">
          <mxGeometry x="690" y="700" width="30" height="60" as="geometry" />
        </mxCell>
        <mxCell id="j8Kz5dMzcf1XI_dZR99u-9" value="&lt;font style=&quot;font-size: 18px;&quot;&gt;&lt;b&gt;log-in system&lt;/b&gt;&lt;/font&gt;" style="ellipse;whiteSpace=wrap;html=1;" vertex="1" parent="1">
          <mxGeometry x="220" y="190" width="120" height="80" as="geometry" />
        </mxCell>
        <mxCell id="j8Kz5dMzcf1XI_dZR99u-15" value="" style="endArrow=none;html=1;rounded=0;entryX=0;entryY=0.5;entryDx=0;entryDy=0;" edge="1" parent="1" source="j8Kz5dMzcf1XI_dZR99u-1" target="j8Kz5dMzcf1XI_dZR99u-9">
          <mxGeometry width="50" height="50" relative="1" as="geometry">
            <mxPoint x="330" y="430" as="sourcePoint" />
            <mxPoint x="380" y="380" as="targetPoint" />
          </mxGeometry>
        </mxCell>
        <mxCell id="j8Kz5dMzcf1XI_dZR99u-20" value="" style="edgeStyle=orthogonalEdgeStyle;rounded=0;orthogonalLoop=1;jettySize=auto;html=1;entryX=1;entryY=0.5;entryDx=0;entryDy=0;" edge="1" parent="1" source="j8Kz5dMzcf1XI_dZR99u-22" target="j8Kz5dMzcf1XI_dZR99u-9">
          <mxGeometry relative="1" as="geometry">
            <mxPoint x="470" y="150" as="sourcePoint" />
            <Array as="points">
              <mxPoint x="400" y="150" />
              <mxPoint x="400" y="230" />
            </Array>
          </mxGeometry>
        </mxCell>
        <mxCell id="j8Kz5dMzcf1XI_dZR99u-18" value="extend" style="text;html=1;align=center;verticalAlign=middle;resizable=0;points=[];autosize=1;strokeColor=none;fillColor=none;" vertex="1" parent="1">
          <mxGeometry x="340" y="200" width="60" height="30" as="geometry" />
        </mxCell>
        <mxCell id="j8Kz5dMzcf1XI_dZR99u-22" value="Browse courses" style="ellipse;whiteSpace=wrap;html=1;" vertex="1" parent="1">
          <mxGeometry x="430" y="110" width="120" height="80" as="geometry" />
        </mxCell>
        <mxCell id="j8Kz5dMzcf1XI_dZR99u-24" style="edgeStyle=orthogonalEdgeStyle;rounded=0;orthogonalLoop=1;jettySize=auto;html=1;exitX=0;exitY=0.5;exitDx=0;exitDy=0;entryX=1;entryY=0.5;entryDx=0;entryDy=0;" edge="1" parent="1" source="j8Kz5dMzcf1XI_dZR99u-23" target="j8Kz5dMzcf1XI_dZR99u-9">
          <mxGeometry relative="1" as="geometry" />
        </mxCell>
        <mxCell id="j8Kz5dMzcf1XI_dZR99u-25" value="extend" style="edgeLabel;html=1;align=center;verticalAlign=middle;resizable=0;points=[];" vertex="1" connectable="0" parent="j8Kz5dMzcf1XI_dZR99u-24">
          <mxGeometry x="-0.2494" y="4" relative="1" as="geometry">
            <mxPoint x="-9" y="86" as="offset" />
          </mxGeometry>
        </mxCell>
        <mxCell id="j8Kz5dMzcf1XI_dZR99u-23" value="Select courses" style="ellipse;whiteSpace=wrap;html=1;" vertex="1" parent="1">
          <mxGeometry x="430" y="210" width="120" height="80" as="geometry" />
        </mxCell>
        <mxCell id="j8Kz5dMzcf1XI_dZR99u-26" value="View timetable" style="ellipse;whiteSpace=wrap;html=1;" vertex="1" parent="1">
          <mxGeometry x="430" y="310" width="120" height="80" as="geometry" />
        </mxCell>
        <mxCell id="j8Kz5dMzcf1XI_dZR99u-27" style="edgeStyle=orthogonalEdgeStyle;rounded=0;orthogonalLoop=1;jettySize=auto;html=1;entryX=1.02;entryY=0.591;entryDx=0;entryDy=0;entryPerimeter=0;" edge="1" parent="1" source="j8Kz5dMzcf1XI_dZR99u-26" target="j8Kz5dMzcf1XI_dZR99u-9">
          <mxGeometry relative="1" as="geometry">
            <Array as="points">
              <mxPoint x="360" y="350" />
              <mxPoint x="360" y="237" />
            </Array>
          </mxGeometry>
        </mxCell>
        <mxCell id="j8Kz5dMzcf1XI_dZR99u-29" style="edgeStyle=orthogonalEdgeStyle;rounded=0;orthogonalLoop=1;jettySize=auto;html=1;entryX=1;entryY=0.5;entryDx=0;entryDy=0;" edge="1" parent="1" source="j8Kz5dMzcf1XI_dZR99u-28" target="j8Kz5dMzcf1XI_dZR99u-23">
          <mxGeometry relative="1" as="geometry" />
        </mxCell>
        <mxCell id="j8Kz5dMzcf1XI_dZR99u-30" value="include" style="edgeLabel;html=1;align=center;verticalAlign=middle;resizable=0;points=[];" vertex="1" connectable="0" parent="j8Kz5dMzcf1XI_dZR99u-29">
          <mxGeometry x="0.2939" y="-7" relative="1" as="geometry">
            <mxPoint x="15" y="-3" as="offset" />
          </mxGeometry>
        </mxCell>
        <mxCell id="j8Kz5dMzcf1XI_dZR99u-28" value="Check validation" style="ellipse;whiteSpace=wrap;html=1;" vertex="1" parent="1">
          <mxGeometry x="620" y="210" width="120" height="80" as="geometry" />
        </mxCell>
        <mxCell id="j8Kz5dMzcf1XI_dZR99u-31" value="Select courses" style="ellipse;whiteSpace=wrap;html=1;" vertex="1" parent="1">
          <mxGeometry x="430" y="210" width="120" height="80" as="geometry" />
        </mxCell>
        <mxCell id="j8Kz5dMzcf1XI_dZR99u-32" value="Make payment" style="ellipse;whiteSpace=wrap;html=1;" vertex="1" parent="1">
          <mxGeometry x="430" y="400" width="120" height="80" as="geometry" />
        </mxCell>
        <mxCell id="j8Kz5dMzcf1XI_dZR99u-33" style="edgeStyle=orthogonalEdgeStyle;rounded=0;orthogonalLoop=1;jettySize=auto;html=1;" edge="1" parent="1" source="j8Kz5dMzcf1XI_dZR99u-32">
          <mxGeometry relative="1" as="geometry">
            <mxPoint x="340" y="240" as="targetPoint" />
          </mxGeometry>
        </mxCell>
        <mxCell id="j8Kz5dMzcf1XI_dZR99u-34" value="extend" style="text;html=1;align=center;verticalAlign=middle;resizable=0;points=[];autosize=1;strokeColor=none;fillColor=none;" vertex="1" parent="1">
          <mxGeometry x="340" y="408" width="60" height="30" as="geometry" />
        </mxCell>
        <mxCell id="j8Kz5dMzcf1XI_dZR99u-35" value="View timetable" style="ellipse;whiteSpace=wrap;html=1;" vertex="1" parent="1">
          <mxGeometry x="430" y="310" width="120" height="80" as="geometry" />
        </mxCell>
        <mxCell id="j8Kz5dMzcf1XI_dZR99u-36" value="Apply the courses" style="ellipse;whiteSpace=wrap;html=1;" vertex="1" parent="1">
          <mxGeometry x="610" y="310" width="120" height="80" as="geometry" />
        </mxCell>
        <mxCell id="j8Kz5dMzcf1XI_dZR99u-37" style="edgeStyle=orthogonalEdgeStyle;rounded=0;orthogonalLoop=1;jettySize=auto;html=1;entryX=1;entryY=0.625;entryDx=0;entryDy=0;entryPerimeter=0;" edge="1" parent="1" source="j8Kz5dMzcf1XI_dZR99u-36" target="j8Kz5dMzcf1XI_dZR99u-31">
          <mxGeometry relative="1" as="geometry" />
        </mxCell>
        <mxCell id="j8Kz5dMzcf1XI_dZR99u-38" value="extend" style="text;html=1;align=center;verticalAlign=middle;resizable=0;points=[];autosize=1;strokeColor=none;fillColor=none;" vertex="1" parent="1">
          <mxGeometry x="570" y="280" width="60" height="30" as="geometry" />
        </mxCell>
        <mxCell id="j8Kz5dMzcf1XI_dZR99u-42" value="Students apply courses" style="ellipse;whiteSpace=wrap;html=1;" vertex="1" parent="1">
          <mxGeometry x="279" y="470" width="120" height="80" as="geometry" />
        </mxCell>
        <mxCell id="j8Kz5dMzcf1XI_dZR99u-43" value="" style="endArrow=none;html=1;rounded=0;exitX=0.5;exitY=0.5;exitDx=0;exitDy=0;exitPerimeter=0;entryX=0;entryY=0.5;entryDx=0;entryDy=0;" edge="1" parent="1" source="j8Kz5dMzcf1XI_dZR99u-2" target="j8Kz5dMzcf1XI_dZR99u-42">
          <mxGeometry width="50" height="50" relative="1" as="geometry">
            <mxPoint x="359" y="430" as="sourcePoint" />
            <mxPoint x="409" y="380" as="targetPoint" />
            <Array as="points" />
          </mxGeometry>
        </mxCell>
        <mxCell id="j8Kz5dMzcf1XI_dZR99u-44" value="Assign courses to teachers" style="ellipse;whiteSpace=wrap;html=1;" vertex="1" parent="1">
          <mxGeometry x="279" y="570" width="120" height="80" as="geometry" />
        </mxCell>
        <mxCell id="j8Kz5dMzcf1XI_dZR99u-45" value="" style="endArrow=none;html=1;rounded=0;exitX=0.5;exitY=0.5;exitDx=0;exitDy=0;exitPerimeter=0;entryX=0;entryY=0.5;entryDx=0;entryDy=0;" edge="1" parent="1" source="j8Kz5dMzcf1XI_dZR99u-2" target="j8Kz5dMzcf1XI_dZR99u-44">
          <mxGeometry width="50" height="50" relative="1" as="geometry">
            <mxPoint x="154" y="550" as="sourcePoint" />
            <mxPoint x="289" y="520" as="targetPoint" />
            <Array as="points" />
          </mxGeometry>
        </mxCell>
        <mxCell id="j8Kz5dMzcf1XI_dZR99u-46" value="" style="endArrow=none;html=1;rounded=0;exitX=0.5;exitY=0.5;exitDx=0;exitDy=0;exitPerimeter=0;entryX=0;entryY=0.5;entryDx=0;entryDy=0;" edge="1" parent="1">
          <mxGeometry width="50" height="50" relative="1" as="geometry">
            <mxPoint x="144" y="540" as="sourcePoint" />
            <mxPoint x="279" y="510" as="targetPoint" />
            <Array as="points" />
          </mxGeometry>
        </mxCell>
        <mxCell id="j8Kz5dMzcf1XI_dZR99u-48" style="edgeStyle=orthogonalEdgeStyle;rounded=0;orthogonalLoop=1;jettySize=auto;html=1;entryX=1;entryY=0.5;entryDx=0;entryDy=0;" edge="1" parent="1" source="j8Kz5dMzcf1XI_dZR99u-47" target="j8Kz5dMzcf1XI_dZR99u-42">
          <mxGeometry relative="1" as="geometry" />
        </mxCell>
        <mxCell id="j8Kz5dMzcf1XI_dZR99u-47" value="Manage students" style="ellipse;whiteSpace=wrap;html=1;" vertex="1" parent="1">
          <mxGeometry x="529" y="510" width="120" height="80" as="geometry" />
        </mxCell>
        <mxCell id="j8Kz5dMzcf1XI_dZR99u-49" value="extend" style="text;html=1;align=center;verticalAlign=middle;resizable=0;points=[];autosize=1;strokeColor=none;fillColor=none;" vertex="1" parent="1">
          <mxGeometry x="459" y="510" width="60" height="30" as="geometry" />
        </mxCell>
        <mxCell id="j8Kz5dMzcf1XI_dZR99u-50" value="Generate reports&amp;nbsp;" style="ellipse;whiteSpace=wrap;html=1;" vertex="1" parent="1">
          <mxGeometry x="279" y="660" width="120" height="80" as="geometry" />
        </mxCell>
        <mxCell id="j8Kz5dMzcf1XI_dZR99u-51" value="" style="endArrow=none;html=1;rounded=0;entryX=0;entryY=0.5;entryDx=0;entryDy=0;exitX=0.5;exitY=0.5;exitDx=0;exitDy=0;exitPerimeter=0;" edge="1" parent="1" source="j8Kz5dMzcf1XI_dZR99u-2" target="j8Kz5dMzcf1XI_dZR99u-50">
          <mxGeometry width="50" height="50" relative="1" as="geometry">
            <mxPoint x="359" y="530" as="sourcePoint" />
            <mxPoint x="409" y="480" as="targetPoint" />
          </mxGeometry>
        </mxCell>
        <mxCell id="j8Kz5dMzcf1XI_dZR99u-52" value="View assignments" style="ellipse;whiteSpace=wrap;html=1;" vertex="1" parent="1">
          <mxGeometry x="529" y="640" width="120" height="80" as="geometry" />
        </mxCell>
        <mxCell id="j8Kz5dMzcf1XI_dZR99u-57" style="edgeStyle=orthogonalEdgeStyle;rounded=0;orthogonalLoop=1;jettySize=auto;html=1;entryX=0;entryY=0.5;entryDx=0;entryDy=0;" edge="1" parent="1" source="j8Kz5dMzcf1XI_dZR99u-53" target="j8Kz5dMzcf1XI_dZR99u-52">
          <mxGeometry relative="1" as="geometry" />
        </mxCell>
        <mxCell id="j8Kz5dMzcf1XI_dZR99u-53" value="Submit grade" style="ellipse;whiteSpace=wrap;html=1;" vertex="1" parent="1">
          <mxGeometry x="409" y="760" width="120" height="80" as="geometry" />
        </mxCell>
        <mxCell id="j8Kz5dMzcf1XI_dZR99u-55" value="" style="endArrow=none;html=1;rounded=0;exitX=0.5;exitY=0.5;exitDx=0;exitDy=0;exitPerimeter=0;entryX=1;entryY=1;entryDx=0;entryDy=0;" edge="1" parent="1" source="j8Kz5dMzcf1XI_dZR99u-4" target="j8Kz5dMzcf1XI_dZR99u-52">
          <mxGeometry width="50" height="50" relative="1" as="geometry">
            <mxPoint x="359" y="680" as="sourcePoint" />
            <mxPoint x="409" y="630" as="targetPoint" />
          </mxGeometry>
        </mxCell>
        <mxCell id="j8Kz5dMzcf1XI_dZR99u-58" value="extend" style="text;html=1;align=center;verticalAlign=middle;resizable=0;points=[];autosize=1;strokeColor=none;fillColor=none;" vertex="1" parent="1">
          <mxGeometry x="459" y="700" width="60" height="30" as="geometry" />
        </mxCell>
      </root>
    </mxGraphModel>
  </diagram>
</mxfile>
